<svg width="265" height="79" viewBox="0 0 265 79" fill="none" xmlns="http://www.w3.org/2000/svg">
<path d="M16.666 25.6992H3.02832V15.4199H15.9795V13.1562H3.02832V3.52637H16.666V1.22559H0.504883V28H16.666V25.6992ZM27.3164 19.7617L32.8271 28H35.6104L28.6709 17.8506L35.666 8.0166H32.8828L27.3906 16.0693H27.335L21.7871 8.0166H19.0039L25.9805 17.9434L18.9297 28H21.7129L27.2422 19.7617H27.3164ZM47.6152 7.79395C44.4424 7.79395 41.752 9.6123 40.6943 12.1543H40.6387V8.0166H38.3193V34.624H40.7686V23.8809H40.8242C41.9375 26.4785 44.4424 28.2227 47.6523 28.2227C52.6807 28.2227 56.1318 24.1035 56.1318 17.999C56.1318 11.9131 52.6621 7.79395 47.6152 7.79395ZM47.1885 26.0146C43.3848 26.0146 40.75 22.7676 40.75 17.999C40.75 13.2676 43.3848 9.9834 47.1885 9.9834C51.0479 9.9834 53.627 13.2119 53.627 18.0176C53.627 22.8232 51.0479 26.0146 47.1885 26.0146ZM59.7314 28H62.1807V0.0566406H59.7314V28ZM74.8535 28.2227C80.3457 28.2227 83.9453 24.2334 83.9453 17.999C83.9453 11.7646 80.3457 7.79395 74.8535 7.79395C69.3613 7.79395 65.7803 11.7646 65.7803 17.999C65.7803 24.2334 69.3613 28.2227 74.8535 28.2227ZM74.8535 26.0146C70.8086 26.0146 68.2852 22.9902 68.2852 17.999C68.2852 13.0264 70.8086 9.9834 74.8535 9.9834C78.917 9.9834 81.4404 13.0078 81.4404 17.999C81.4404 22.9902 78.917 26.0146 74.8535 26.0146ZM87.3779 28H89.8271V15.6055C89.8271 12.377 91.6455 10.1504 94.4844 10.1504C95.3379 10.1504 96.043 10.2803 96.377 10.4287V7.99805C96.0615 7.90527 95.4678 7.79395 94.8184 7.79395C92.332 7.79395 90.4395 9.18555 89.7529 11.5605H89.6787V8.0166H87.3779V28ZM105.858 9.96484C109.477 9.96484 111.926 12.6367 111.963 16.6074H99.5312C99.7539 12.6367 102.277 9.96484 105.858 9.96484ZM111.833 22.3408C111.239 24.5303 109.105 26.0518 106.1 26.0518C102.129 26.0518 99.5312 23.2686 99.5312 18.7412V18.6113H114.523V17.5352C114.523 11.5977 111.146 7.79395 105.896 7.79395C100.515 7.79395 96.9893 11.8574 96.9893 18.0547C96.9893 24.3447 100.515 28.2227 106.044 28.2227C110.386 28.2227 113.67 25.7549 114.264 22.3408H111.833ZM127.456 3.22949V8.0166H124.599V10.0762H127.456V23.083C127.456 26.6826 128.792 28.1113 132.095 28.1113C132.614 28.1113 133.69 28.0557 133.95 27.9814V25.8848C133.802 25.9033 132.837 25.959 132.577 25.959C130.722 25.959 129.905 25.0684 129.905 22.9902V10.0762H133.857V8.0166H129.905V3.22949H127.456ZM137.661 28H140.11V16.3477C140.11 12.5439 142.467 9.9834 146.085 9.9834C149.499 9.9834 151.466 12.0986 151.466 15.5869V28H153.915V15.1973C153.915 10.7256 151.15 7.79395 146.771 7.79395C143.562 7.79395 141.279 9.25977 140.166 11.7461H140.11V0.0566406H137.661V28ZM166.087 9.96484C169.705 9.96484 172.154 12.6367 172.191 16.6074H159.76C159.982 12.6367 162.506 9.96484 166.087 9.96484ZM172.062 22.3408C171.468 24.5303 169.334 26.0518 166.328 26.0518C162.357 26.0518 159.76 23.2686 159.76 18.7412V18.6113H174.752V17.5352C174.752 11.5977 171.375 7.79395 166.124 7.79395C160.743 7.79395 157.218 11.8574 157.218 18.0547C157.218 24.3447 160.743 28.2227 166.272 28.2227C170.614 28.2227 173.898 25.7549 174.492 22.3408H172.062Z" fill="#0048A6"/>
<path d="M11.8047 78C17.5195 78 21.0078 75.1055 21.0078 70.3926C21.0078 66.8486 18.4473 64.2324 14.8105 63.8799V63.7314C17.5566 63.2861 19.6904 60.7812 19.6904 57.9053C19.6904 53.8418 16.5547 51.2256 11.6934 51.2256H0.356445V78H11.8047ZM5.14355 54.9551H10.5059C13.3447 54.9551 14.959 56.2725 14.959 58.6104C14.959 61.0967 13.085 62.5068 9.74512 62.5068H5.14355V54.9551ZM5.14355 74.2705V65.9023H10.5244C14.1797 65.9023 16.1094 67.3311 16.1094 70.0586C16.1094 72.8047 14.2354 74.2705 10.71 74.2705H5.14355ZM32.6973 61.041C35.4434 61.041 37.3359 62.9707 37.4287 65.9023H27.8174C28.0215 63.0078 29.9883 61.041 32.6973 61.041ZM37.4473 71.9697C36.9092 73.6396 35.1836 74.6973 32.957 74.6973C29.8584 74.6973 27.7803 72.5264 27.7803 69.2607V68.9824H41.9746V67.4609C41.9746 61.3193 38.375 57.4414 32.6973 57.4414C26.8896 57.4414 23.1602 61.5605 23.1602 67.9434C23.1602 74.3262 26.8711 78.2969 32.8643 78.2969C37.5957 78.2969 41.1953 75.7178 41.7891 71.9697H37.4473ZM52.4209 74.6787C50.2686 74.6787 48.8584 73.6396 48.8584 72.0068C48.8584 70.3555 50.1943 69.3906 52.7178 69.2236L57.3564 68.9268V70.4668C57.3564 72.9346 55.2227 74.6787 52.4209 74.6787ZM51.0664 78.2227C53.7568 78.2227 56.2617 76.9053 57.375 74.7344H57.4863V78H61.9209V64.1025C61.9209 60.0762 58.6367 57.4414 53.5713 57.4414C48.8027 57.4414 45.3516 60.0947 45.2402 63.8057H49.5078C49.8232 62.1729 51.3262 61.0781 53.4229 61.0781C55.9092 61.0781 57.3564 62.2471 57.3564 64.3994V65.8838L52.0869 66.1992C46.9844 66.5146 44.2197 68.5742 44.2197 72.1924C44.2197 75.792 47.0771 78.2227 51.0664 78.2227ZM83.6484 57.7197H79.0283V69.3535C79.0283 72.3594 77.3027 74.3447 74.4824 74.3447C71.7549 74.3447 70.3262 72.749 70.3262 69.7988V57.7197H65.7061V70.7266C65.7061 75.4023 68.4707 78.2598 72.8867 78.2598C75.9668 78.2598 77.9893 76.9238 79.1025 74.4561H79.2139V78H83.6484V57.7197ZM88.8809 53.1924V57.7197H86.1162V61.3008H88.8809V72.6191C88.8809 76.5342 90.5879 78.0928 94.8926 78.0928C95.876 78.0928 96.8223 78.0186 97.3232 77.9072V74.3633C97.0264 74.4004 96.3955 74.4561 95.9502 74.4561C94.2803 74.4561 93.501 73.6582 93.501 71.9883V61.3008H97.3418V57.7197H93.501V53.1924H88.8809ZM100.737 78H105.357V57.7197H100.737V78ZM103.038 55.1406C104.485 55.1406 105.636 54.0273 105.636 52.5986C105.636 51.1514 104.485 50.0566 103.038 50.0566C101.609 50.0566 100.44 51.1514 100.44 52.5986C100.44 54.0273 101.609 55.1406 103.038 55.1406ZM110.738 78H115.358V61.3008H119.144V57.7197H115.303V56.1055C115.303 54.5098 115.989 53.8232 117.641 53.8232C118.197 53.8232 118.717 53.8789 119.125 53.9717V50.6133C118.438 50.4834 117.696 50.4277 116.88 50.4277C112.52 50.4277 110.738 52.0605 110.738 55.9014V57.7197H107.974V61.3008H110.738V78ZM140.203 57.7197H135.583V69.3535C135.583 72.3594 133.857 74.3447 131.037 74.3447C128.31 74.3447 126.881 72.749 126.881 69.7988V57.7197H122.261V70.7266C122.261 75.4023 125.025 78.2598 129.441 78.2598C132.521 78.2598 134.544 76.9238 135.657 74.4561H135.769V78H140.203V57.7197ZM144.285 78H148.905V49.9824H144.285V78Z" fill="#1B1E28"/>
<path d="M188.835 57.7197H184.271L180.764 73.3799H180.671L176.645 57.7197H172.21L168.184 73.3799H168.091L164.603 57.7197H159.982L165.493 78H170.299L174.325 63.1006H174.437L178.481 78H183.324L188.835 57.7197ZM199.949 78.2969C205.961 78.2969 209.728 74.3262 209.728 67.8506C209.728 61.4307 205.924 57.4414 199.949 57.4414C194.012 57.4414 190.189 61.4492 190.189 67.8506C190.189 74.3262 193.975 78.2969 199.949 78.2969ZM199.949 74.6045C196.795 74.6045 194.884 72.1182 194.884 67.8691C194.884 63.6387 196.795 61.1338 199.949 61.1338C203.122 61.1338 205.033 63.6201 205.033 67.8691C205.033 72.1182 203.141 74.6045 199.949 74.6045ZM212.826 78H217.446V66.2363C217.446 63.3789 219.079 61.6162 221.788 61.6162C222.586 61.6162 223.31 61.7275 223.699 61.876V57.6826C223.347 57.5713 222.827 57.4971 222.215 57.4971C219.821 57.4971 218.003 58.8701 217.354 61.2451H217.261V57.7197H212.826V78ZM226.334 78H230.954V49.9824H226.334V78ZM242.644 78.2227C245.612 78.2227 247.95 76.8125 249.045 74.5488H249.138V78H253.665V49.9824H249.045V61.1338H248.934C247.839 58.8887 245.557 57.4971 242.625 57.4971C237.597 57.4971 234.201 61.5605 234.201 67.8506C234.201 74.1592 237.578 78.2227 242.644 78.2227ZM243.998 61.3379C247.041 61.3379 249.063 63.9541 249.063 67.8691C249.063 71.8027 247.06 74.3818 243.998 74.3818C240.937 74.3818 238.933 71.8584 238.933 67.8691C238.933 63.8984 240.937 61.3379 243.998 61.3379ZM259.046 51.2256L259.417 69.168H263.443L263.814 51.2256H259.046ZM261.421 78.3711C262.942 78.3711 264.13 77.2021 264.13 75.7363C264.13 74.2705 262.942 73.1201 261.421 73.1201C259.918 73.1201 258.73 74.2705 258.73 75.7363C258.73 77.2021 259.918 78.3711 261.421 78.3711Z" fill="#FF7029"/>
</svg>
