<svg width="32" height="37" viewBox="0 0 32 37" fill="none" xmlns="http://www.w3.org/2000/svg">
<path d="M31.3696 25.3488C31.5246 25.0855 31.6027 24.7839 31.5954 24.4774C31.5881 24.1709 31.4956 23.8715 31.3282 23.6125L25.0941 14.0317L28.4687 8.33847C28.81 7.76278 29.0331 7.12471 29.1254 6.46068C29.2177 5.79666 29.1774 5.11969 29.0067 4.46841C28.836 3.81714 28.5383 3.20433 28.1306 2.66496C27.7229 2.12559 27.2132 1.67023 26.6306 1.32488C26.0479 0.979533 25.4038 0.750955 24.7349 0.652198C24.0661 0.553442 23.3856 0.586442 22.7323 0.749315C22.079 0.912187 21.4658 1.20174 20.9276 1.60145C20.3893 2.00115 19.9367 2.50318 19.5954 3.07887L16.2208 8.77209L4.82355 7.90196C4.51589 7.87943 4.20886 7.94198 3.93649 8.08268C3.66411 8.22338 3.43704 8.43674 3.28044 8.6991L0.471058 13.4387C0.331665 13.6694 0.251433 13.9311 0.237346 14.201C0.223258 14.4708 0.275739 14.7407 0.390224 14.9872C0.505015 15.2306 0.677055 15.4435 0.891661 15.6075C1.10627 15.7716 1.35707 15.882 1.62265 15.9293L10.9733 17.6251L7.82642 22.934L4.69857 22.234C4.35587 22.1599 3.99954 22.1945 3.67994 22.333C3.36035 22.4714 3.09366 22.7067 2.91758 23.0055L0.850614 26.4926C0.739783 26.6814 0.667966 26.8906 0.639325 27.108C0.610683 27.3255 0.625787 27.5468 0.683759 27.7593C0.796199 28.1813 1.07046 28.5442 1.44743 28.7698L14.6565 36.5994C15.0386 36.8259 15.4938 36.8931 15.9222 36.7863C16.3505 36.6795 16.7169 36.4074 16.9407 36.0299L19.0498 32.4717C19.2274 32.1737 19.3058 31.8268 19.2739 31.48C19.2419 31.1332 19.1013 30.804 18.8718 30.5389L16.6997 28.1936L19.8381 22.8989L25.8141 30.2879C25.9831 30.4982 26.2003 30.6652 26.4473 30.7747C26.6942 30.8842 26.9635 30.933 27.2321 30.9168C27.5033 30.899 27.7653 30.8155 27.9952 30.6736C28.2252 30.5317 28.4163 30.3357 28.5518 30.1026L31.3696 25.3488ZM20.9241 18.965C20.7546 18.7511 20.5354 18.5811 20.2857 18.47C20.036 18.3589 19.7634 18.31 19.4917 18.3275C19.2233 18.3452 18.964 18.4271 18.7357 18.5664C18.5073 18.7057 18.3169 18.8982 18.1805 19.1274L13.2535 27.4395C13.0758 27.7398 12.9988 28.0893 13.0333 28.4379C13.0679 28.7866 13.2123 29.1166 13.446 29.3808L15.547 31.7802L14.889 32.8904L4.5608 26.7685L5.21886 25.6583L8.3323 26.3497C8.67625 26.4279 9.0351 26.3961 9.35755 26.2591C9.68001 26.1221 9.94957 25.8867 10.1277 25.5867L15.0547 17.2746C15.1903 17.0449 15.2677 16.7854 15.2803 16.5183C15.2929 16.2512 15.2403 15.9843 15.1271 15.7404C15.012 15.4936 14.8382 15.2779 14.6209 15.1122C14.4035 14.9465 14.1492 14.8358 13.8802 14.7897L4.54402 13.1025L5.6239 11.2807L17.0068 12.1423C17.3159 12.1684 17.6254 12.1084 17.9005 11.9691C18.1756 11.8298 18.4055 11.6167 18.5643 11.3537L22.4367 4.82069C22.6783 4.41301 23.074 4.11918 23.5366 4.00383C23.9992 3.88849 24.4909 3.96109 24.9035 4.20566C25.3161 4.45022 25.6158 4.84672 25.7367 5.30793C25.8576 5.76914 25.7897 6.25728 25.5481 6.66497L21.6757 13.1979C21.5212 13.4635 21.4445 13.7675 21.4544 14.0757C21.4642 14.3838 21.5602 14.6841 21.7315 14.9428L27.9512 24.5151L26.8797 26.3227L20.9241 18.965Z" fill="white"/>
</svg>
